<?xml version="1.0" standalone="no"?>
<!DOCTYPE svg PUBLIC "-//W3C//DTD SVG 20010904//EN"
 "http://www.w3.org/TR/2001/REC-SVG-20010904/DTD/svg10.dtd">
<svg version="1.0" xmlns="http://www.w3.org/2000/svg"
 width="875.000000pt" height="148.000000pt" viewBox="0 0 875.000000 148.000000"
 preserveAspectRatio="xMidYMid meet">

<g transform="translate(0.000000,148.000000) scale(0.100000,-0.100000)"
fill="#000000" stroke="none">
<path d="M645 1459 c-148 -19 -329 -96 -427 -180 -52 -44 -62 -69 -41 -98 11
-17 25 -21 72 -21 61 0 81 -11 81 -45 0 -33 -27 -63 -95 -106 -86 -54 -135
-109 -135 -153 0 -42 30 -81 74 -97 34 -12 34 -12 20 -46 -12 -27 -12 -42 -4
-75 9 -32 9 -43 -2 -50 -14 -9 -73 -6 -99 6 -12 5 -18 1 -21 -18 -7 -34 15
-81 47 -102 26 -17 26 -17 7 -38 -11 -12 -29 -40 -41 -63 -11 -23 -29 -47 -38
-52 -16 -10 -15 -13 12 -36 54 -45 115 -54 205 -30 80 21 146 18 230 -10 40
-14 85 -25 99 -24 19 1 16 3 -14 10 -22 5 -69 19 -103 30 -69 23 -138 23 -244
-2 -44 -10 -65 -10 -96 -1 -49 15 -92 48 -76 59 6 5 23 31 38 60 14 29 36 58
48 64 21 11 21 12 2 26 -50 37 -64 54 -64 82 0 30 0 30 47 25 68 -8 87 8 75
62 -7 30 -5 52 4 80 8 22 14 40 14 40 0 1 -14 4 -30 8 -40 7 -80 48 -80 81 0
47 29 84 110 141 100 70 124 98 117 141 -5 29 -1 36 42 68 78 57 173 96 276
113 87 15 103 15 190 0 103 -17 198 -56 276 -114 42 -31 48 -39 43 -63 -8 -36
28 -79 105 -126 78 -47 131 -106 131 -146 0 -35 -47 -89 -78 -89 -29 0 -31 -8
-14 -51 12 -32 13 -46 4 -77 -16 -51 3 -66 76 -59 49 5 52 4 52 -16 0 -29 -25
-64 -62 -86 l-29 -18 26 -17 c13 -9 34 -35 46 -59 12 -23 28 -49 36 -58 13
-15 11 -19 -16 -38 -43 -31 -105 -36 -193 -16 -42 9 -89 15 -104 12 -27 -4
-26 -4 5 -6 19 0 64 -8 99 -17 84 -21 150 -15 202 20 l41 27 -30 35 c-17 19
-31 41 -31 48 0 7 -11 25 -25 40 l-25 27 35 35 c23 23 35 44 35 62 0 37 -12
53 -30 42 -21 -13 -84 -12 -97 1 -8 8 -8 20 -1 40 10 28 8 46 -7 95 -5 17 -2
23 20 28 41 10 75 53 75 94 0 50 -38 95 -129 152 -42 27 -84 63 -94 80 -17 29
-18 33 -3 55 14 22 24 25 74 25 122 0 107 71 -34 160 -166 105 -389 154 -579
129z m290 -25 c96 -18 207 -64 295 -123 121 -80 129 -124 24 -129 -32 -2 -63
-7 -68 -12 -5 -5 -26 5 -50 26 -88 76 -259 134 -394 134 -118 0 -295 -62 -378
-134 -28 -24 -45 -32 -54 -26 -8 5 -34 6 -57 3 -76 -10 -96 31 -41 84 99 94
285 173 448 192 88 9 165 5 275 -15z"/>
<path d="M1730 1333 c-46 -18 -62 -61 -40 -103 5 -10 33 -26 60 -35 43 -14 51
-21 48 -38 -4 -27 -47 -36 -60 -13 -11 19 -58 22 -58 4 1 -46 89 -75 141 -47
27 14 41 53 29 83 -6 17 -25 30 -62 44 -37 14 -54 26 -56 40 -4 28 33 39 57
18 21 -19 61 -21 61 -3 0 34 -79 67 -120 50z"/>
<path d="M2750 1318 c-51 -34 -74 -86 -61 -136 16 -57 50 -84 114 -90 46 -4
57 -1 85 23 114 96 -14 286 -138 203z m114 -50 c24 -33 20 -93 -6 -118 -28
-26 -72 -26 -98 0 -25 25 -27 95 -3 122 24 27 87 24 107 -4z"/>
<path d="M2977 1333 c-4 -3 -7 -60 -7 -125 l0 -118 25 0 c23 0 24 2 27 81 l3
80 52 -80 c43 -66 57 -81 78 -81 l25 0 0 126 c0 124 0 125 -22 122 -21 -3 -23
-9 -28 -83 l-5 -79 -54 82 c-49 76 -74 95 -94 75z"/>
<path d="M3802 1323 c-11 -21 -82 -217 -82 -227 0 -3 11 -6 23 -6 16 0 28 9
35 25 10 21 18 25 57 25 39 0 45 -3 51 -25 5 -19 13 -25 35 -25 l28 0 -35 98
c-55 153 -54 152 -80 152 -13 0 -27 -8 -32 -17z m57 -130 c1 -8 -11 -13 -30
-13 -33 0 -33 3 -7 70 l10 25 13 -35 c8 -19 14 -41 14 -47z"/>
<path d="M4147 1333 c-4 -3 -7 -60 -7 -125 l0 -118 70 0 c63 0 70 2 70 20 0
17 -7 20 -45 20 -43 0 -45 1 -45 30 0 28 2 30 40 30 33 0 40 3 40 20 0 17 -7
20 -40 20 -38 0 -40 2 -40 30 0 29 2 30 45 30 41 0 45 2 45 25 0 24 -2 25 -63
25 -35 0 -67 -3 -70 -7z"/>
<path d="M4681 1322 c-20 -10 -43 -33 -54 -54 -56 -110 62 -220 173 -163 59
30 80 127 39 179 -43 55 -100 68 -158 38z m109 -52 c31 -31 27 -93 -6 -119
-44 -34 -86 -26 -110 21 -17 33 -12 72 13 101 22 23 78 22 103 -3z"/>
<path d="M5487 1334 c-4 -4 -7 -61 -7 -126 l0 -118 75 0 c68 0 75 2 75 20 0
17 -7 20 -50 20 -49 0 -50 1 -50 29 0 28 3 30 42 33 31 2 44 8 46 20 3 13 -6
17 -40 20 -38 3 -43 6 -46 30 -3 26 -1 27 45 30 40 3 48 6 48 23 0 18 -8 20
-65 23 -36 2 -69 0 -73 -4z"/>
<path d="M5735 1326 c-45 -20 -67 -50 -72 -99 -9 -81 42 -137 126 -137 42 0
101 38 101 66 0 21 -44 17 -65 -6 -24 -27 -61 -25 -90 5 -32 31 -34 86 -5 115
24 24 82 27 100 5 7 -8 26 -15 42 -15 26 0 28 2 18 20 -25 47 -103 70 -155 46z"/>
<path d="M6190 1215 l0 -125 25 0 c25 0 25 1 25 82 l0 83 55 -83 c45 -66 60
-82 80 -82 l26 0 -3 123 c-3 118 -4 122 -25 125 -22 3 -23 1 -23 -85 l0 -88
-56 88 c-45 70 -60 87 -80 87 l-24 0 0 -125z"/>
<path d="M6600 1322 c-111 -55 -72 -232 51 -232 59 0 119 38 119 74 0 14 -44
4 -67 -14 -43 -33 -85 -25 -109 22 -17 33 -12 72 13 101 20 21 76 23 93 2 13
-16 70 -21 70 -7 0 14 -43 50 -73 61 -39 15 -56 14 -97 -7z"/>
<path d="M2070 1210 l0 -120 25 0 c23 0 25 3 25 50 l0 50 50 0 50 0 0 -50 c0
-49 1 -50 30 -50 l30 0 0 120 0 120 -30 0 c-29 0 -30 -1 -30 -50 l0 -50 -50 0
-50 0 0 50 c0 47 -2 50 -25 50 l-25 0 0 -120z"/>
<path d="M2590 1235 c0 -80 -3 -97 -17 -102 -11 -4 -22 1 -31 15 -20 31 -52
29 -52 -2 0 -51 90 -76 130 -36 17 17 20 33 20 120 l0 100 -25 0 c-25 0 -25 0
-25 -95z"/>
<path d="M3230 1210 l0 -120 60 0 c103 0 150 39 150 123 0 42 -5 54 -34 83
-32 32 -38 34 -105 34 l-71 0 0 -120z m140 60 c20 -20 28 -83 12 -106 -11 -18
-48 -34 -76 -34 -26 0 -26 1 -26 80 l0 80 35 0 c22 0 43 -8 55 -20z"/>
<path d="M3480 1210 l0 -120 25 0 c23 0 25 3 25 50 l0 50 50 0 50 0 0 -50 c0
-47 2 -50 25 -50 l25 0 0 120 0 120 -25 0 c-23 0 -25 -3 -25 -50 l0 -50 -50 0
-50 0 0 50 c0 47 -2 50 -25 50 l-25 0 0 -120z"/>
<path d="M3980 1210 l0 -120 65 0 c58 0 65 2 65 20 0 17 -7 20 -40 20 l-40 0
0 100 0 100 -25 0 -25 0 0 -120z"/>
<path d="M4410 1210 l0 -120 25 0 c23 0 25 4 25 45 0 41 2 45 24 45 90 0 139
76 83 128 -19 18 -35 22 -90 22 l-67 0 0 -120z m129 56 c4 -23 -24 -46 -56
-46 -20 0 -23 5 -23 36 0 35 1 35 37 32 28 -2 39 -8 42 -22z"/>
<path d="M4900 1210 l0 -120 65 0 c58 0 65 2 65 20 0 17 -7 20 -40 20 l-40 0
0 100 0 100 -25 0 -25 0 0 -120z"/>
<path d="M5079 1256 c31 -56 41 -84 41 -120 0 -42 2 -46 25 -46 23 0 25 4 25
40 0 27 13 67 40 120 l40 80 -25 0 c-20 0 -30 -10 -51 -52 l-27 -53 -25 53
c-23 45 -30 52 -55 52 l-28 0 40 -74z"/>
<path d="M5270 1310 c0 -16 7 -20 30 -20 l30 0 0 -100 0 -100 25 0 c25 0 25 0
25 99 l0 100 32 3 c22 2 34 9 36 21 3 15 -6 17 -87 17 -84 0 -91 -1 -91 -20z"/>
<path d="M5940 1210 l0 -120 25 0 c23 0 25 3 25 50 l0 50 50 0 50 0 0 -50 c0
-47 2 -50 25 -50 l25 0 0 120 0 120 -25 0 c-23 0 -25 -3 -25 -50 l0 -50 -50 0
-50 0 0 50 c0 47 -2 50 -25 50 l-25 0 0 -120z"/>
<path d="M6450 1210 l0 -120 25 0 25 0 0 120 0 120 -25 0 -25 0 0 -120z"/>
<path d="M2326 1134 c-20 -20 -9 -44 20 -44 19 0 24 5 24 24 0 29 -24 40 -44
20z"/>
<path d="M1894 1125 c-4 -9 -2 -21 4 -27 16 -16 47 -5 47 17 0 26 -42 34 -51
10z"/>
<path d="M670 959 c0 -5 -4 -7 -10 -4 -19 12 -10 -41 16 -93 24 -48 44 -67 44
-42 0 6 -4 10 -9 10 -5 0 -17 23 -27 52 -13 40 -14 55 -5 70 7 11 7 18 1 18
-5 0 -10 -5 -10 -11z"/>
<path d="M1680 875 l0 -65 33 0 c38 0 50 7 66 37 23 44 -19 93 -80 93 -17 0
-19 -7 -19 -65z m74 29 c33 -32 13 -74 -36 -74 -27 0 -28 2 -28 45 0 41 2 45
24 45 14 0 32 -7 40 -16z"/>
<path d="M1832 923 c-47 -40 -23 -113 37 -113 56 0 81 70 41 110 -25 25 -51
25 -78 3z m66 -15 c20 -20 15 -66 -9 -78 -24 -13 -69 10 -69 36 0 45 49 71 78
42z"/>
<path d="M1966 933 c-11 -11 -7 -125 4 -118 6 3 10 23 11 43 l0 37 19 -42 c11
-24 23 -43 28 -43 5 0 19 21 30 48 l20 47 1 -47 c1 -27 6 -48 11 -48 12 0 13
117 1 124 -12 8 -26 -11 -42 -56 -7 -21 -16 -38 -20 -38 -3 0 -14 20 -23 45
-18 46 -29 59 -40 48z"/>
<path d="M2137 933 c-4 -3 -7 -33 -7 -65 l0 -58 34 0 c19 0 41 3 50 6 17 7 22
39 7 48 -5 3 -7 16 -4 28 4 14 0 26 -12 34 -20 15 -57 19 -68 7z m68 -33 c0
-9 -11 -16 -27 -18 -23 -3 -28 1 -28 18 0 17 5 21 28 18 16 -2 27 -9 27 -18z
m3 -52 c3 -14 -3 -18 -27 -18 -25 0 -31 4 -31 21 0 16 5 20 27 17 17 -2 29
-10 31 -20z"/>
<path d="M2263 875 c0 -38 2 -53 4 -32 2 20 2 52 0 70 -2 17 -4 1 -4 -38z"/>
<path d="M2301 929 c-1 -25 40 -119 53 -119 12 0 61 118 53 127 -6 5 -26 -38
-42 -88 -7 -22 -11 -19 -36 36 -15 33 -28 53 -28 44z"/>
<path d="M2437 929 c-5 -9 -7 -38 -5 -65 l3 -49 43 -3 c29 -2 42 0 37 7 -3 6
-19 11 -35 11 -28 0 -29 1 -32 58 -2 37 -6 51 -11 41z"/>
<path d="M2543 875 c0 -38 2 -53 4 -32 2 20 2 52 0 70 -2 17 -4 1 -4 -38z"/>
<path d="M2726 929 c-2 -8 -10 -32 -17 -54 l-13 -40 -15 48 c-8 26 -19 47 -23
47 -5 0 -6 -10 -2 -22 34 -110 44 -118 65 -51 l15 48 15 -42 c8 -24 19 -44 24
-45 10 -3 42 81 44 111 2 26 -15 -2 -29 -49 l-13 -45 -16 47 c-18 53 -29 67
-35 47z"/>
<path d="M2844 926 c-3 -7 -4 -35 -2 -62 l3 -49 43 -3 c25 -2 42 1 42 7 0 6
-16 11 -35 11 -24 0 -35 5 -35 15 0 10 10 15 30 15 17 0 30 5 30 10 0 6 -13
10 -30 10 -23 0 -30 4 -30 20 0 16 7 20 35 20 19 0 35 5 35 10 0 16 -80 12
-86 -4z"/>
<path d="M2965 924 c-21 -22 -15 -36 24 -56 18 -9 35 -19 39 -23 12 -12 -23
-25 -52 -19 -19 4 -26 3 -22 -5 11 -18 76 -14 83 5 8 23 -9 47 -38 54 -37 9
-30 34 11 40 27 4 31 7 17 13 -28 11 -44 9 -62 -9z"/>
<path d="M3050 930 c0 -5 9 -10 20 -10 18 0 20 -7 20 -55 0 -30 5 -55 10 -55
6 0 10 25 10 55 0 48 2 55 20 55 11 0 20 5 20 10 0 6 -22 10 -50 10 -27 0 -50
-4 -50 -10z"/>
<path d="M2590 860 c0 -5 9 -10 20 -10 11 0 20 5 20 10 0 6 -9 10 -20 10 -11
0 -20 -4 -20 -10z"/>
<path d="M710 792 c0 -5 9 -17 20 -27 19 -17 19 -17 7 9 -12 25 -27 35 -27 18z"/>
<path d="M4690 618 l0 -74 34 -2 c36 -3 66 18 66 44 0 32 -21 54 -50 54 -23 0
-30 5 -30 19 0 11 -4 23 -10 26 -6 4 -10 -21 -10 -67z m73 -10 c15 -23 1 -48
-28 -48 -21 0 -25 5 -25 29 0 41 32 52 53 19z"/>
<path d="M5034 595 c0 -55 1 -76 3 -47 2 29 2 74 0 100 -2 26 -3 2 -3 -53z"/>
<path d="M8377 683 c-11 -10 -8 -131 3 -138 6 -4 10 22 10 69 0 76 -1 82 -13
69z"/>
<path d="M8428 684 c-12 -11 -10 -132 2 -139 6 -4 10 8 10 29 0 25 6 38 20 46
29 16 40 4 40 -41 0 -21 5 -39 10 -39 16 0 12 76 -5 90 -8 7 -26 10 -39 8 -22
-4 -25 -1 -28 24 -2 17 -6 26 -10 22z"/>
<path d="M8650 595 c0 -62 4 -94 10 -90 6 3 10 44 10 90 0 46 -4 87 -10 90 -6
4 -10 -28 -10 -90z"/>
<path d="M1697 615 c-30 -73 -31 -75 -18 -75 5 0 13 9 16 20 5 15 15 20 40 20
25 0 35 -5 40 -20 3 -11 11 -20 17 -20 5 0 8 6 5 13 -3 6 -13 32 -22 57 -19
48 -33 70 -44 70 -4 0 -19 -29 -34 -65z m63 -17 c0 -5 -11 -8 -25 -8 -29 0
-29 0 -13 35 l12 26 13 -23 c7 -13 12 -26 13 -30z"/>
<path d="M1830 610 c0 -40 4 -70 10 -70 6 0 10 14 10 30 0 28 3 30 36 30 21 0
33 4 29 10 -3 6 -19 10 -36 10 -22 0 -29 5 -29 20 0 16 7 20 35 20 19 0 35 5
35 10 0 6 -20 10 -45 10 l-45 0 0 -70z"/>
<path d="M1950 610 c0 -40 4 -70 10 -70 6 0 10 14 10 30 0 28 3 30 35 30 19 0
35 5 35 10 0 6 -16 10 -35 10 -28 0 -35 4 -35 20 0 16 7 20 35 20 19 0 35 5
35 10 0 6 -20 10 -45 10 l-45 0 0 -70z"/>
<path d="M2070 610 c0 -40 4 -70 10 -70 6 0 10 30 10 70 0 40 -4 70 -10 70 -6
0 -10 -30 -10 -70z"/>
<path d="M2130 610 l0 -70 45 0 c25 0 45 5 45 10 0 6 -16 10 -35 10 l-35 0 0
60 c0 33 -4 60 -10 60 -6 0 -10 -30 -10 -70z"/>
<path d="M2247 673 c-11 -10 -8 -133 3 -133 6 0 10 30 10 70 0 70 -1 76 -13
63z"/>
<path d="M2319 614 c-30 -67 -32 -96 -3 -56 20 29 70 30 79 2 6 -19 25 -28 25
-12 0 17 -54 132 -62 132 -5 0 -22 -30 -39 -66z m56 -1 c5 -20 3 -23 -19 -23
-30 0 -30 0 -14 35 12 27 22 24 33 -12z"/>
<path d="M2420 670 c0 -5 11 -10 25 -10 24 0 25 -3 25 -60 0 -33 4 -60 10 -60
6 0 10 27 10 60 0 53 2 60 19 60 11 0 23 5 26 10 4 6 -17 10 -54 10 -34 0 -61
-4 -61 -10z"/>
<path d="M2560 610 l0 -70 51 0 c31 0 48 4 44 10 -3 6 -22 10 -41 10 -27 0
-34 4 -34 20 0 16 7 20 35 20 19 0 35 5 35 10 0 6 -16 10 -35 10 -28 0 -35 4
-35 20 0 16 7 20 34 20 19 0 38 5 41 10 4 6 -13 10 -44 10 l-51 0 0 -70z"/>
<path d="M2690 610 l0 -70 39 0 c31 0 44 6 60 26 27 35 26 59 -4 89 -16 17
-35 25 -60 25 l-35 0 0 -70z m84 34 c32 -32 11 -84 -34 -84 -29 0 -30 1 -30
50 0 46 2 50 24 50 14 0 32 -7 40 -16z"/>
<path d="M2875 670 c3 -5 15 -10 26 -10 17 0 19 -7 19 -60 0 -33 4 -60 10 -60
6 0 10 27 10 60 0 53 2 60 19 60 11 0 23 5 26 10 4 6 -17 10 -55 10 -38 0 -59
-4 -55 -10z"/>
<path d="M3020 660 c-43 -43 -11 -120 48 -120 38 0 60 19 68 55 13 66 -69 112
-116 65z m94 -33 c13 -36 -2 -61 -38 -65 -35 -4 -56 13 -56 47 0 36 19 53 55
49 22 -2 32 -10 39 -31z"/>
<path d="M3220 610 c0 -40 4 -70 10 -70 6 0 10 26 10 58 l1 57 22 -54 c13 -30
27 -56 33 -58 6 -2 22 22 36 54 l26 58 1 -59 c1 -42 4 -57 12 -49 14 14 7 125
-9 131 -7 2 -23 -19 -39 -55 l-26 -58 -15 35 c-8 19 -18 45 -23 58 -5 12 -15
22 -24 22 -12 0 -15 -14 -15 -70z"/>
<path d="M3470 665 c-20 -24 -7 -49 30 -61 19 -6 36 -19 38 -28 3 -13 -5 -16
-38 -16 -25 0 -39 -4 -35 -10 9 -15 71 -12 85 5 19 23 7 47 -30 60 -49 17 -53
45 -6 45 20 0 36 5 36 10 0 16 -66 12 -80 -5z"/>
<path d="M3640 609 l0 -70 46 3 c52 3 73 23 59 54 -4 11 -7 27 -6 37 4 29 -19
47 -60 47 l-39 0 0 -71z m80 31 c0 -16 -7 -20 -30 -20 -23 0 -30 4 -30 20 0
16 7 20 30 20 23 0 30 -4 30 -20z m10 -60 c0 -16 -7 -20 -35 -20 -28 0 -35 4
-35 20 0 16 7 20 35 20 28 0 35 -4 35 -20z"/>
<path d="M3810 670 c0 -5 9 -10 20 -10 18 0 20 -7 20 -60 0 -33 4 -60 10 -60
6 0 10 27 10 60 0 57 1 60 25 60 14 0 25 5 25 10 0 6 -25 10 -55 10 -30 0 -55
-4 -55 -10z"/>
<path d="M3984 666 c-3 -7 -4 -38 -2 -67 l3 -54 48 -3 c28 -2 47 1 47 7 0 6
-18 11 -40 11 -33 0 -40 3 -40 20 0 16 7 20 35 20 19 0 35 5 35 10 0 6 -16 10
-35 10 -28 0 -35 4 -35 20 0 17 7 20 40 20 22 0 40 5 40 10 0 16 -90 12 -96
-4z"/>
<path d="M4197 673 c-11 -10 -8 -133 3 -133 5 0 10 26 12 58 l3 57 21 -55 c12
-30 27 -55 34 -55 8 0 24 25 36 55 l23 55 1 -57 c0 -34 4 -58 10 -58 16 0 8
132 -7 138 -7 2 -17 -7 -22 -20 -5 -13 -15 -39 -23 -58 l-15 -35 -26 58 c-25
54 -35 65 -50 50z"/>
<path d="M4925 670 c3 -5 8 -10 11 -10 2 0 4 5 4 10 0 6 -5 10 -11 10 -5 0 -7
-4 -4 -10z"/>
<path d="M5159 633 c-35 -81 -39 -93 -29 -93 5 0 14 9 20 20 15 28 66 27 80
-1 7 -11 14 -18 17 -15 8 8 -47 136 -58 136 -6 0 -19 -21 -30 -47z m51 -30 c0
-7 -11 -13 -24 -13 -24 0 -24 2 -14 32 10 29 12 30 25 13 7 -11 13 -25 13 -32z"/>
<path d="M5280 610 c0 -40 4 -70 10 -70 6 0 10 11 10 25 0 20 5 25 26 25 39 0
64 18 64 45 0 29 -26 45 -74 45 l-36 0 0 -70z m85 25 c0 -15 -8 -21 -32 -23
-30 -3 -33 -1 -33 23 0 24 3 26 33 23 24 -2 32 -8 32 -23z"/>
<path d="M5420 609 c0 -44 4 -68 10 -64 6 3 10 15 10 25 0 14 8 20 31 22 77 7
66 88 -12 88 l-39 0 0 -71z m83 39 c8 -24 -5 -38 -34 -38 -24 0 -29 4 -29 25
0 21 5 25 29 25 16 0 31 -6 34 -12z"/>
<path d="M5550 611 c0 -41 4 -71 10 -71 6 0 10 12 10 26 0 23 3 25 33 22 24
-2 33 -8 35 -25 2 -13 8 -23 13 -23 11 0 12 31 0 49 -6 9 -5 21 2 33 20 30 -3
53 -57 56 l-46 3 0 -70z m85 24 c0 -15 -8 -21 -32 -23 -30 -3 -33 -1 -33 23 0
24 3 26 33 23 24 -2 32 -8 32 -23z"/>
<path d="M5709 662 c-48 -40 -17 -122 46 -122 39 0 68 30 68 70 0 61 -65 91
-114 52z m93 -27 c18 -41 -3 -75 -47 -75 -44 0 -65 34 -47 75 9 20 19 25 47
25 28 0 38 -5 47 -25z"/>
<path d="M5840 672 c0 -23 50 -127 62 -130 11 -2 25 24 65 126 3 6 1 12 -5 12
-5 0 -21 -27 -34 -61 l-25 -61 -23 56 c-21 52 -40 80 -40 58z"/>
<path d="M5990 610 l0 -70 50 0 c28 0 50 5 50 10 0 6 -18 10 -40 10 -33 0 -40
3 -40 20 0 16 7 20 35 20 19 0 35 5 35 10 0 6 -16 10 -35 10 -28 0 -35 4 -35
20 0 16 7 20 34 20 19 0 38 5 41 10 4 6 -13 10 -44 10 l-51 0 0 -70z"/>
<path d="M6120 610 l0 -70 39 0 c70 0 106 73 58 118 -15 14 -36 22 -60 22
l-37 0 0 -70z m94 17 c13 -37 -2 -61 -43 -65 l-31 -3 0 51 0 51 32 -3 c25 -2
35 -9 42 -31z"/>
<path d="M6320 609 l0 -70 46 3 c52 3 73 23 59 54 -4 11 -7 27 -6 37 4 29 -19
47 -60 47 l-39 0 0 -71z m80 31 c0 -16 -7 -20 -30 -20 -23 0 -30 4 -30 20 0
16 7 20 30 20 23 0 30 -4 30 -20z m10 -60 c0 -16 -7 -20 -35 -20 -28 0 -35 4
-35 20 0 16 7 20 35 20 28 0 35 -4 35 -20z"/>
<path d="M6440 673 c0 -3 11 -21 25 -39 14 -18 25 -46 25 -63 0 -17 5 -31 10
-31 6 0 10 14 10 32 0 18 11 45 25 64 27 35 30 44 16 44 -6 0 -18 -13 -28 -30
-9 -16 -20 -30 -23 -30 -3 0 -14 14 -25 30 -19 28 -35 39 -35 23z"/>
<path d="M6695 615 c-16 -36 -26 -68 -22 -71 3 -3 10 4 17 15 15 29 63 28 83
-1 12 -18 16 -19 16 -7 1 23 -47 129 -58 129 -5 0 -21 -29 -36 -65z m43 -23
c-28 -5 -33 4 -19 35 l13 28 12 -30 c11 -27 11 -30 -6 -33z"/>
<path d="M6880 610 c0 -45 4 -69 10 -65 6 3 10 33 10 65 0 32 -4 62 -10 65 -6
4 -10 -20 -10 -65z"/>
<path d="M6991 654 c-24 -31 -26 -43 -9 -79 12 -27 41 -39 79 -33 41 6 31 24
-11 20 -35 -4 -41 -1 -51 22 -9 20 -9 32 0 52 10 23 16 26 51 22 25 -2 39 0
37 7 -2 5 -20 11 -39 13 -29 2 -40 -2 -57 -24z"/>
<path d="M7150 670 c0 -5 9 -10 20 -10 18 0 20 -7 20 -54 0 -30 5 -58 10 -61
6 -4 10 17 10 54 0 58 1 61 25 61 14 0 25 5 25 10 0 6 -25 10 -55 10 -30 0
-55 -4 -55 -10z"/>
<path d="M7330 610 l0 -70 45 0 c25 0 45 5 45 10 0 6 -18 10 -40 10 -33 0 -40
3 -40 20 0 16 7 20 35 20 19 0 35 5 35 10 0 6 -16 10 -35 10 -28 0 -35 4 -35
20 0 17 7 20 40 20 22 0 40 5 40 10 0 6 -20 10 -45 10 l-45 0 0 -70z"/>
<path d="M7640 611 c0 -82 17 -97 22 -18 l3 52 35 -52 c48 -72 60 -69 60 17 0
40 -4 70 -10 70 -5 0 -10 -26 -10 -57 l0 -56 -37 53 c-54 77 -63 76 -63 -9z"/>
<path d="M8120 610 l0 -70 39 0 c70 0 106 73 58 118 -15 14 -36 22 -60 22
l-37 0 0 -70z m94 17 c13 -37 -2 -61 -43 -65 l-31 -3 0 51 0 51 32 -3 c25 -2
35 -9 42 -31z"/>
<path d="M8550 669 c0 -5 5 -7 10 -4 6 3 10 8 10 11 0 2 -4 4 -10 4 -5 0 -10
-5 -10 -11z"/>
<path d="M4380 603 c0 -52 10 -63 53 -61 l37 1 0 49 c0 26 -4 48 -10 48 -5 0
-10 -18 -10 -40 0 -36 -2 -40 -25 -40 -22 0 -25 4 -25 40 0 22 -4 40 -10 40
-5 0 -10 -17 -10 -37z"/>
<path d="M4500 589 c0 -27 5 -49 10 -49 6 0 10 15 10 34 0 35 21 63 40 51 5
-3 10 -24 10 -46 0 -21 5 -39 10 -39 6 0 10 18 10 39 0 26 5 41 16 45 25 10
34 -2 34 -45 0 -21 5 -39 10 -39 13 0 13 56 0 80 -8 15 -22 18 -80 17 l-70 0
0 -48z"/>
<path d="M4820 631 c0 -5 8 -7 18 -4 10 2 24 -3 31 -11 12 -14 10 -16 -10 -16
-34 0 -52 -14 -47 -36 5 -29 82 -27 86 2 2 11 -2 32 -7 47 -8 21 -17 27 -41
27 -16 0 -30 -4 -30 -9z m55 -50 c3 -6 -3 -15 -14 -21 -24 -12 -42 7 -20 21
18 11 26 11 34 0z"/>
<path d="M4927 633 c-11 -10 -8 -81 3 -88 6 -4 10 13 10 44 0 52 -1 56 -13 44z"/>
<path d="M6570 630 c0 -5 5 -10 10 -10 6 0 10 5 10 10 0 6 -4 10 -10 10 -5 0
-10 -4 -10 -10z"/>
<path d="M7802 628 c-7 -7 -12 -24 -12 -38 0 -14 5 -31 12 -38 15 -15 64 -16
73 -2 4 6 -8 10 -29 10 -20 0 -36 5 -36 10 0 6 14 10 30 10 34 0 49 22 30 45
-15 18 -51 20 -68 3z m56 -15 c2 -8 -6 -13 -22 -13 -25 0 -33 10 -19 24 10 10
36 3 41 -11z"/>
<path d="M7900 626 c0 -24 27 -86 38 -86 5 0 14 15 19 33 l10 32 13 -32 c14
-40 27 -42 40 -8 18 47 22 75 12 75 -5 0 -13 -16 -16 -35 -8 -41 -21 -39 -29
5 -9 41 -23 38 -38 -7 l-12 -38 -11 32 c-13 38 -26 53 -26 29z"/>
<path d="M8272 628 c-7 -7 -12 -24 -12 -38 0 -14 5 -31 12 -38 15 -15 64 -16
73 -2 4 6 -8 10 -29 10 -20 0 -36 5 -36 10 0 6 14 10 30 10 34 0 49 22 30 45
-15 18 -51 20 -68 3z m56 -15 c2 -8 -6 -13 -22 -13 -25 0 -33 10 -19 24 10 10
36 3 41 -11z"/>
<path d="M8550 589 c0 -31 4 -48 10 -44 6 3 10 26 10 51 0 24 -4 44 -10 44 -5
0 -10 -23 -10 -51z"/>
<path d="M4123 593 c9 -2 23 -2 30 0 6 3 -1 5 -18 5 -16 0 -22 -2 -12 -5z"/>
<path d="M7513 593 c9 -2 23 -2 30 0 6 3 -1 5 -18 5 -16 0 -22 -2 -12 -5z"/>
<path d="M3410 550 c0 -5 5 -10 10 -10 6 0 10 5 10 10 0 6 -4 10 -10 10 -5 0
-10 -4 -10 -10z"/>
<path d="M3585 550 c3 -5 10 -10 16 -10 5 0 9 5 9 10 0 6 -7 10 -16 10 -8 0
-12 -4 -9 -10z"/>
<path d="M3775 550 c3 -5 10 -10 16 -10 5 0 9 5 9 10 0 6 -7 10 -16 10 -8 0
-12 -4 -9 -10z"/>
<path d="M3930 550 c0 -5 5 -10 10 -10 6 0 10 5 10 10 0 6 -4 10 -10 10 -5 0
-10 -4 -10 -10z"/>
<path d="M6570 550 c0 -5 5 -10 10 -10 6 0 10 5 10 10 0 6 -4 10 -10 10 -5 0
-10 -4 -10 -10z"/>
<path d="M6820 550 c0 -5 5 -10 10 -10 6 0 10 5 10 10 0 6 -4 10 -10 10 -5 0
-10 -4 -10 -10z"/>
<path d="M6930 550 c0 -5 5 -10 10 -10 6 0 10 5 10 10 0 6 -4 10 -10 10 -5 0
-10 -4 -10 -10z"/>
<path d="M7120 550 c0 -5 5 -10 10 -10 6 0 10 5 10 10 0 6 -4 10 -10 10 -5 0
-10 -4 -10 -10z"/>
<path d="M7270 550 c0 -5 5 -10 10 -10 6 0 10 5 10 10 0 6 -4 10 -10 10 -5 0
-10 -4 -10 -10z"/>
<path d="M223 421 c-28 -13 -49 -33 -67 -63 -14 -25 -26 -48 -26 -51 0 -12 76
-7 126 8 67 20 103 19 219 -10 100 -25 237 -33 263 -16 8 5 29 3 50 -5 62 -22
126 -17 238 21 116 39 146 42 218 20 54 -16 104 -19 124 -7 17 11 -37 86 -77
107 -44 22 -116 18 -212 -11 -80 -25 -94 -26 -329 -27 -221 -1 -252 1 -320 21
-117 33 -158 35 -207 13z m239 -30 c57 -14 118 -21 180 -21 325 2 347 3 441
34 69 22 101 27 145 24 51 -5 59 -9 94 -48 50 -56 40 -69 -40 -51 -113 27
-144 25 -262 -13 -118 -39 -163 -43 -224 -21 -26 9 -46 11 -63 4 -42 -16 -134
-10 -243 16 -122 29 -178 31 -246 10 -50 -15 -94 -20 -94 -10 0 18 34 66 57
83 48 34 87 33 255 -7z"/>
<path d="M1680 370 c0 -40 4 -70 10 -70 6 0 10 12 10 26 0 23 3 25 33 22 24
-2 33 -8 35 -25 2 -13 8 -23 13 -23 12 0 12 27 -1 50 -7 13 -7 21 0 25 17 10
11 44 -9 55 -11 5 -36 10 -55 10 l-36 0 0 -70z m85 25 c0 -15 -8 -21 -32 -23
-30 -3 -33 -1 -33 23 0 24 3 26 33 23 24 -2 32 -8 32 -23z"/>
<path d="M1820 370 l0 -70 50 0 c28 0 50 5 50 10 0 6 -18 10 -40 10 -33 0 -40
3 -40 20 0 16 7 20 35 20 19 0 35 5 35 10 0 6 -16 10 -35 10 -28 0 -35 4 -35
20 0 16 7 20 34 20 19 0 38 5 41 10 4 6 -13 10 -44 10 l-51 0 0 -70z"/>
<path d="M1960 420 c-45 -45 -11 -120 54 -120 19 0 38 5 41 10 4 6 -9 10 -32
10 -46 0 -63 14 -63 50 0 36 17 50 65 50 29 0 36 3 25 10 -25 16 -69 11 -90
-10z"/>
<path d="M2095 420 c-41 -46 -10 -120 50 -120 39 0 68 30 68 70 0 40 -29 70
-68 70 -19 0 -39 -8 -50 -20z m97 -25 c18 -41 -3 -75 -47 -75 -44 0 -65 34
-47 75 9 20 19 25 47 25 28 0 38 -5 47 -25z"/>
<path d="M2260 420 c-26 -26 -26 -81 -1 -104 13 -12 32 -16 58 -14 36 3 38 5
41 41 3 34 1 37 -22 37 -14 0 -26 -4 -26 -10 0 -5 7 -10 15 -10 8 0 15 -9 15
-20 0 -15 -7 -20 -28 -20 -35 0 -52 16 -52 51 0 37 23 53 65 46 35 -6 48 6 19
17 -30 12 -64 6 -84 -14z"/>
<path d="M2400 368 c0 -79 17 -85 22 -8 l3 45 34 -53 c47 -73 61 -69 61 18 0
40 -4 70 -10 70 -6 0 -10 -26 -10 -57 l0 -58 -41 58 c-22 31 -45 57 -50 57 -5
0 -9 -32 -9 -72z"/>
<path d="M2560 370 c0 -45 4 -69 10 -65 6 3 10 33 10 65 0 32 -4 62 -10 65 -6
4 -10 -20 -10 -65z"/>
<path d="M2622 428 c-24 -24 -13 -49 28 -65 53 -21 53 -43 -1 -43 -24 0 -38
-4 -34 -10 9 -14 68 -13 83 2 23 23 13 45 -28 62 -51 20 -54 46 -5 46 19 0 35
5 35 10 0 14 -64 12 -78 -2z"/>
<path d="M2740 370 l0 -70 45 0 c25 0 45 5 45 10 0 6 -16 10 -35 10 -28 0 -35
4 -35 20 0 16 7 20 36 20 21 0 33 4 29 10 -3 6 -19 10 -36 10 -22 0 -29 5 -29
20 0 16 7 20 35 20 19 0 35 5 35 10 0 6 -20 10 -45 10 l-45 0 0 -70z"/>
<path d="M2864 426 c-3 -7 -4 -38 -2 -67 l3 -54 36 -3 c48 -4 82 24 82 68 0
22 -7 39 -22 52 -27 21 -89 24 -97 4z m90 -28 c9 -12 16 -28 16 -35 0 -21 -31
-43 -61 -43 -28 0 -29 1 -29 50 0 49 1 50 29 50 20 0 35 -8 45 -22z"/>
<path d="M3070 370 l0 -70 45 0 c35 0 47 5 55 21 8 15 8 24 0 34 -6 8 -9 23
-5 35 10 31 -12 50 -56 50 l-39 0 0 -70z m75 30 c0 -9 -11 -16 -27 -18 -23 -3
-28 1 -28 18 0 17 5 21 28 18 16 -2 27 -9 27 -18z m10 -60 c0 -10 -12 -16 -32
-18 -28 -3 -33 0 -33 18 0 18 5 21 33 18 20 -2 32 -8 32 -18z"/>
<path d="M3190 435 c0 -5 9 -23 20 -40 11 -16 20 -42 20 -57 0 -15 5 -30 10
-33 6 -4 10 5 10 20 0 14 12 43 26 65 32 48 26 65 -7 19 l-22 -32 -28 34 c-16
19 -29 30 -29 24z"/>
<path d="M3380 370 l0 -70 38 0 c25 0 46 7 60 20 49 46 11 120 -61 120 l-37 0
0 -70z m94 17 c13 -37 -2 -61 -43 -65 l-31 -3 0 51 0 51 32 -3 c25 -2 35 -9
42 -31z"/>
<path d="M3550 430 c0 -5 11 -10 25 -10 24 0 25 -3 25 -60 0 -33 4 -60 10 -60
6 0 10 27 10 60 0 53 2 60 20 60 11 0 20 5 20 10 0 6 -25 10 -55 10 -30 0 -55
-4 -55 -10z"/>
<path d="M3730 370 l0 -70 51 0 c31 0 48 4 44 10 -3 6 -22 10 -41 10 -27 0
-34 4 -34 20 0 16 7 20 35 20 19 0 35 5 35 10 0 6 -16 10 -35 10 -28 0 -35 4
-35 20 0 16 7 20 34 20 19 0 38 5 41 10 4 6 -13 10 -44 10 l-51 0 0 -70z"/>
<path d="M3997 434 c-11 -11 -8 -134 3 -134 6 0 10 26 10 58 l1 57 23 -55 c12
-30 28 -55 36 -55 7 0 22 25 34 55 l21 55 3 -57 c2 -32 7 -58 13 -58 6 0 9 27
7 68 -4 85 -23 90 -53 15 -11 -29 -22 -53 -25 -53 -3 0 -14 23 -25 52 -20 50
-34 66 -48 52z"/>
<path d="M4210 393 c-11 -26 -23 -58 -26 -72 l-5 -26 17 23 c10 13 27 22 44
22 17 0 34 -9 44 -22 l17 -23 -6 27 c-8 42 -43 118 -54 118 -6 0 -19 -21 -31
-47z m44 -9 c10 -26 7 -34 -14 -34 -11 0 -20 4 -20 9 0 17 12 41 20 41 4 0 11
-7 14 -16z"/>
<path d="M4338 434 c-12 -11 -10 -134 2 -134 6 0 10 14 10 30 0 28 2 30 40 30
38 0 40 -2 40 -30 0 -16 5 -30 10 -30 6 0 10 28 10 64 0 36 -4 68 -10 71 -6 4
-10 -7 -10 -24 0 -29 -2 -31 -39 -31 -37 0 -40 2 -43 31 -2 17 -6 27 -10 23z"/>
<path d="M4521 418 c-5 -13 -17 -42 -26 -66 -18 -45 -15 -69 5 -33 15 29 63
28 83 -1 25 -37 21 1 -8 66 -27 60 -40 69 -54 34z m33 -34 c10 -26 7 -34 -14
-34 -11 0 -20 4 -20 9 0 17 12 41 20 41 4 0 11 -7 14 -16z"/>
<path d="M4637 433 c-11 -10 -8 -121 3 -128 6 -4 10 5 10 19 0 23 4 26 35 26
28 0 35 -4 35 -19 0 -11 4 -22 9 -25 13 -8 11 106 -1 122 -11 13 -80 17 -91 5z
m86 -27 c8 -20 -13 -36 -45 -36 -23 0 -28 4 -28 25 0 22 4 25 34 25 20 0 36
-6 39 -14z"/>
<path d="M4796 378 c-14 -35 -26 -66 -26 -70 0 -17 18 -7 23 12 7 29 60 27 80
-2 8 -13 18 -20 21 -17 8 8 -50 139 -62 139 -5 0 -21 -28 -36 -62z m42 -26
c-28 -5 -33 4 -19 35 l13 28 12 -30 c11 -27 11 -30 -6 -33z"/>
<path d="M4930 425 c-20 -24 -7 -49 30 -61 19 -6 36 -19 38 -28 3 -13 -5 -16
-38 -16 -25 0 -39 -4 -35 -10 9 -15 71 -12 85 5 19 23 7 47 -30 60 -49 17 -53
45 -6 45 20 0 36 5 36 10 0 16 -66 12 -80 -5z"/>
<path d="M5050 370 c0 -40 4 -70 10 -70 6 0 10 14 10 30 0 28 3 30 35 30 32 0
35 -2 35 -30 0 -16 5 -30 10 -30 6 0 10 30 10 71 0 44 -4 68 -10 64 -5 -3 -10
-17 -10 -31 0 -21 -5 -24 -35 -24 -32 0 -35 2 -35 30 0 17 -4 30 -10 30 -6 0
-10 -30 -10 -70z"/>
<path d="M5190 430 c0 -5 9 -10 20 -10 18 0 20 -7 20 -60 0 -33 4 -60 10 -60
6 0 10 27 10 60 0 57 1 60 25 60 14 0 25 5 25 10 0 6 -25 10 -55 10 -30 0 -55
-4 -55 -10z"/>
<path d="M5320 371 c0 -41 4 -71 10 -71 6 0 10 12 10 26 0 23 3 25 33 22 24
-2 33 -8 35 -25 2 -13 8 -23 13 -23 12 0 12 47 -1 55 -6 4 -5 13 3 25 20 32
-2 54 -57 58 l-46 3 0 -70z m88 27 c-2 -18 -11 -24 -35 -26 -30 -3 -33 -1 -33
22 0 23 4 26 36 26 31 0 35 -3 32 -22z"/>
<path d="M5490 393 c-11 -26 -23 -58 -26 -72 l-5 -26 17 23 c10 13 27 22 44
22 17 0 34 -9 44 -22 l17 -23 -5 26 c-8 38 -46 119 -56 119 -5 0 -18 -21 -30
-47z m50 -30 c0 -7 -9 -13 -20 -13 -22 0 -23 3 -13 39 6 23 7 23 20 6 7 -11
13 -25 13 -32z"/>
<path d="M3923 353 c9 -2 23 -2 30 0 6 3 -1 5 -18 5 -16 0 -22 -2 -12 -5z"/>
<path d="M3520 310 c0 -5 5 -10 10 -10 6 0 10 5 10 10 0 6 -4 10 -10 10 -5 0
-10 -4 -10 -10z"/>
<path d="M3675 310 c3 -5 10 -10 16 -10 5 0 9 5 9 10 0 6 -7 10 -16 10 -8 0
-12 -4 -9 -10z"/>
<path d="M1000 249 c-103 -34 -114 -35 -189 -8 -46 15 -65 18 -80 10 -11 -6
-37 -15 -58 -20 -36 -8 -36 -9 -8 -10 17 0 43 6 58 14 26 13 34 12 93 -7 73
-24 110 -20 234 27 90 33 54 29 -50 -6z"/>
<path d="M172 138 c-15 -18 -1 -37 33 -46 16 -5 30 -13 32 -19 6 -16 -37 -27
-50 -14 -17 17 -31 13 -17 -4 23 -28 80 -13 80 21 0 7 -16 18 -35 24 -19 6
-35 16 -35 21 0 17 30 22 47 8 14 -12 16 -12 11 1 -6 20 -52 25 -66 8z"/>
<path d="M680 100 c0 -27 5 -50 10 -50 6 0 10 14 10 30 0 23 5 30 19 30 15 0
21 -9 24 -32 l5 -33 -2 35 c-1 28 -5 36 -23 38 -13 2 -23 10 -23 18 0 8 -4 14
-10 14 -5 0 -10 -22 -10 -50z"/>
<path d="M824 136 c-8 -22 1 -33 36 -39 36 -8 42 -37 7 -37 -13 0 -28 5 -35
12 -9 9 -12 9 -12 0 0 -18 42 -31 63 -20 29 15 21 48 -13 55 -17 3 -33 10 -36
14 -9 16 28 23 48 10 16 -10 19 -10 16 1 -7 19 -67 23 -74 4z"/>
<path d="M1270 140 c0 -5 5 -10 10 -10 6 0 10 5 10 10 0 6 -4 10 -10 10 -5 0
-10 -4 -10 -10z"/>
<path d="M640 132 c0 -7 -11 -12 -25 -12 -14 0 -25 -3 -26 -7 -4 -42 -3 -63 3
-63 4 0 8 14 8 30 0 23 4 30 20 30 16 0 20 -7 20 -30 0 -16 3 -30 8 -30 8 0 7
78 -2 87 -3 4 -6 1 -6 -5z"/>
<path d="M1105 121 c4 -8 12 -28 16 -45 l7 -31 1 31 c1 19 -6 37 -16 45 -14
12 -16 12 -8 0z"/>
<path d="M1188 123 c6 -2 12 -18 12 -34 0 -22 -5 -29 -20 -29 -23 0 -27 16 -5
23 11 4 10 4 -2 3 -10 -1 -19 -9 -21 -19 -3 -14 4 -17 32 -17 33 0 36 3 36 28
0 29 -16 53 -34 51 -6 0 -5 -3 2 -6z"/>
<path d="M1317 123 c-13 -13 -7 -32 13 -38 11 -3 20 -11 20 -17 0 -6 -9 -8
-20 -5 -11 3 -20 1 -20 -5 0 -14 53 -5 58 9 2 7 -8 18 -22 24 -31 14 -35 34
-6 26 11 -3 18 -1 14 4 -6 11 -28 12 -37 2z"/>
<path d="M276 111 c-3 -4 6 -6 19 -3 25 4 35 -12 13 -21 -8 -3 -6 -6 4 -6 11
-1 15 -6 12 -15 -3 -8 -1 -17 5 -21 12 -7 15 33 5 59 -6 17 -49 22 -58 7z"/>
<path d="M361 76 l2 -41 6 35 c8 49 41 55 42 8 l1 -33 7 30 c9 45 39 45 44 1
l4 -36 -1 37 -1 38 -52 1 -53 1 1 -41z"/>
<path d="M500 112 c0 -5 11 -7 25 -4 15 2 25 0 25 -7 0 -6 -8 -11 -19 -11 -10
0 -24 -7 -32 -16 -10 -13 -10 -17 2 -25 8 -5 19 -9 24 -9 6 1 2 5 -8 11 -21
13 -13 29 15 29 14 0 18 -5 14 -15 -3 -8 -1 -15 5 -15 6 0 9 15 7 33 -2 27 -8
33 -30 35 -16 2 -28 -1 -28 -6z"/>
<path d="M930 109 c0 -5 5 -7 10 -4 6 3 10 8 10 11 0 2 -4 4 -10 4 -5 0 -10
-5 -10 -11z"/>
<path d="M975 110 c4 -6 -8 -15 -25 -21 -30 -11 -36 -29 -12 -37 7 -2 10 2 6
12 -4 12 0 16 15 16 23 0 29 -15 9 -23 -8 -3 -6 -6 5 -6 13 -1 17 7 17 34 0
19 -5 35 -11 35 -5 0 -7 -5 -4 -10z"/>
<path d="M1020 85 c0 -45 7 -45 12 0 2 19 0 35 -4 35 -4 0 -8 -16 -8 -35z"/>
<path d="M1068 85 c5 -44 9 -44 14 0 2 21 0 35 -7 35 -7 0 -9 -14 -7 -35z"/>
<path d="M1150 109 c0 -5 5 -7 10 -4 6 3 10 8 10 11 0 2 -4 4 -10 4 -5 0 -10
-5 -10 -11z"/>
<path d="M1238 70 c-1 -28 0 -50 5 -50 4 0 7 23 7 50 0 65 -7 65 -12 0z"/>
<path d="M272 63 c2 -10 12 -19 23 -20 17 -2 17 -1 2 3 -11 4 -16 12 -13 20 3
8 1 14 -5 14 -6 0 -9 -8 -7 -17z"/>
</g>
</svg>
